<?xml version="1.0" encoding="iso-8859-1"?>
<!-- Generator: Adobe Illustrator 19.0.0, SVG Export Plug-In . SVG Version: 6.00 Build 0)  -->
<svg version="1.1" id="Layer_1" xmlns="http://www.w3.org/2000/svg" xmlns:xlink="http://www.w3.org/1999/xlink" x="0px" y="0px"
	 viewBox="0 0 512 512" style="enable-background:new 0 0 512 512;" xml:space="preserve">
<g>
	<g>
		<g>
			<path d="M21.333,21.333h213.333v96c0,5.867,4.8,10.667,10.667,10.667h96v74.667h21.333v-85.333c0-2.88-1.173-5.547-3.093-7.573
				L252.907,3.093C250.88,1.173,248.213,0,245.333,0H10.667C4.8,0,0,4.8,0,10.667v448c0,5.867,4.8,10.667,10.667,10.667H224V448
				H21.333V21.333z M256,36.373l70.293,70.293H256V36.373z"/>
			<path d="M510.827,496.533l-128-256c-3.627-7.253-15.467-7.253-19.093,0l-128,256c-2.667,5.227-0.533,11.627,4.8,14.293
				c1.493,0.747,3.093,1.173,4.8,1.173h256C507.2,512,512,507.2,512,501.333C512,499.733,511.573,498.027,510.827,496.533z
				 M262.613,490.667l110.72-221.44l110.72,221.44H262.613z"/>
			<path d="M362.667,350.08v69.44c0,5.333,3.84,10.133,9.067,10.88c6.613,0.96,12.267-4.16,12.267-10.56V350.4
				c0-5.333-3.84-10.133-9.067-10.88C368.32,338.56,362.667,343.68,362.667,350.08z"/>
			<path d="M373.333,444.16c-5.867,0-10.667,4.8-10.667,10.667c0,5.867,4.8,10.667,10.667,10.667c5.867,0,10.667-4.8,10.667-10.667
				C384,448.96,379.2,444.16,373.333,444.16z"/>
		</g>
	</g>
</g>
<g>
</g>
<g>
</g>
<g>
</g>
<g>
</g>
<g>
</g>
<g>
</g>
<g>
</g>
<g>
</g>
<g>
</g>
<g>
</g>
<g>
</g>
<g>
</g>
<g>
</g>
<g>
</g>
<g>
</g>
</svg>
